<?xml version="1.0" encoding="UTF-8"?>
<svg id="Layer_1" data-name="Layer 1" xmlns="http://www.w3.org/2000/svg" viewBox="0 0 1400 350">
  <defs>
    <style>
      .cls-1 {
        fill: none;
      }

      .cls-2 {
        fill: #2bb0fb;
      }

      .cls-3 {
        fill: #0057fa;
      }

      .cls-4 {
        fill: #1533b6;
      }
    </style>
  </defs>
  <rect class="cls-1" y="0" width="1400" height="350"/>
  <g>
    <path class="cls-3" d="M468.34,257.6l-87.87-164.64c-8.95-16.77-26.4-27.24-45.41-27.24h-104.51c-19,0-36.46,10.47-45.41,27.24l-87.87,164.64c-6.45,12.08,2.31,26.67,16,26.67h93.75c6.7,0,12.85-3.69,16-9.6l59.79-112.03,59.79,112.03c3.15,5.91,9.3,9.6,16,9.6h93.75c13.69,0,22.44-14.59,16-26.67Z"/>
    <g>
      <path class="cls-2" d="M230.56,65.72c-19,0-36.46,10.47-45.41,27.24l-87.87,164.64c-6.45,12.08,2.31,26.67,16,26.67h93.75c6.7,0,12.85-3.69,16-9.6l59.79-112.03-51.73-96.93h-.53Z"/>
      <path class="cls-4" d="M468.34,257.6l-87.87-164.64c-8.95-16.77-26.4-27.24-45.41-27.24h-.53l-51.73,96.93,59.79,112.03c3.15,5.91,9.3,9.6,16,9.6h93.75c13.69,0,22.44-14.59,16-26.67Z"/>
      <polygon class="cls-3" points="231.09 65.72 282.81 162.65 334.54 65.72 231.09 65.72"/>
    </g>
    <g>
      <rect class="cls-4" x="708.74" y="77.91" width="32.27" height="196.75"/>
      <path class="cls-4" d="M668.05,146.81h-13.46v-67.82h-34.07c-25.96,0-33,13.3-36.37,36.28l-20.98,144.65-.08.58h32.49l19.15-134.79c1.61-11.95,2.68-16.94,5.16-16.94h2.22v151.74h32.48v-81.77h13.46v95.94h32.06V77.91h-32.06v68.89Z"/>
      <path class="cls-4" d="M872.96,123.92v-1.29c0-29.17-21.82-47.29-56.94-47.29s-56.94,18.12-56.94,47.29v1.29c0,29.17,21.82,47.29,56.94,47.29s56.94-18.12,56.94-47.29ZM816.02,142.73c-13.01,0-21.1-7.45-21.1-19.45s8.08-19.45,21.1-19.45,21.1,7.45,21.1,19.45-8.09,19.45-21.1,19.45Z"/>
      <rect class="cls-4" x="887.89" y="77.91" width="35.84" height="93.3"/>
      <path class="cls-4" d="M808.14,237.75h99.35c12.9,0,16.24-3.41,16.24-16.6v-43.86h-151.85v26.77h116.01v9.07h-115.59v61.54h153.53v-27.2h-117.69v-9.72Z"/>
      <path class="cls-4" d="M986.3,201.26l27.17-84.91c1.52-4.67,3.51-7.38,9.17-7.38h19.51c5.77,0,7.62,2.38,9.38,7.37l27.17,84.91h38.41l-30.63-92.29h24.56v-28.92h-157.09v28.92h24.56l-30.63,92.29h38.41Z"/>
      <rect class="cls-4" x="942.84" y="232.87" width="179.33" height="28.92"/>
      <polygon class="cls-4" points="1272.61 77.91 1272.61 111.39 1260.41 111.39 1260.41 77.91 1228.34 77.91 1228.34 183.66 1260.41 183.66 1260.41 143.31 1272.61 143.31 1272.61 183.66 1304.88 183.66 1304.88 77.91 1272.61 77.91"/>
      <path class="cls-4" d="M1135.41,116.97v64.33h86.19v-26.77h-53.7v-11.22h32.01c12.9,0,16.24-3.41,16.24-16.6v-47.72h-81.15v26.77h48.67v11.22h-48.25Z"/>
      <path class="cls-4" d="M1269.04,202.18h-81.85v-11.8h-35.84v84.29h132.67c15.01,0,20.86-5.98,20.86-21.33v-62.96h-35.84v11.8ZM1187.19,245.74v-15.08h81.85v15.08h-81.85Z"/>
    </g>
  </g>
</svg>