<?xml version="1.0" encoding="UTF-8"?>
<svg id="Layer_1" data-name="Layer 1" xmlns="http://www.w3.org/2000/svg" viewBox="0 0 1700 350">
  <defs>
    <style>
      .cls-1 {
        fill: none;
      }

      .cls-2 {
        fill: #2bb0fb;
      }

      .cls-3 {
        fill: #0057fa;
      }

      .cls-4 {
        fill: #1533b6;
      }
    </style>
  </defs>
  <rect class="cls-1" width="1700" height="350"/>
  <g>
    <path class="cls-3" d="M453.64,257.6l-87.87-164.64c-8.95-16.77-26.4-27.24-45.41-27.24h-104.51c-19,0-36.46,10.47-45.41,27.24l-87.87,164.64c-6.45,12.08,2.31,26.67,16,26.67h93.75c6.7,0,12.85-3.69,16-9.6l59.79-112.03,59.79,112.03c3.15,5.91,9.3,9.6,16,9.6h93.75c13.69,0,22.44-14.59,16-26.67Z"/>
    <g>
      <path class="cls-2" d="M215.85,65.72c-19,0-36.46,10.47-45.41,27.24l-87.87,164.64c-6.45,12.08,2.31,26.67,16,26.67h93.75c6.7,0,12.85-3.69,16-9.6l59.79-112.03-51.73-96.93h-.53Z"/>
      <path class="cls-4" d="M453.64,257.6l-87.87-164.64c-8.95-16.77-26.4-27.24-45.41-27.24h-.53l-51.73,96.93,59.79,112.03c3.15,5.91,9.3,9.6,16,9.6h93.75c13.69,0,22.44-14.59,16-26.67Z"/>
      <polygon class="cls-3" points="216.38 65.72 268.11 162.65 319.84 65.72 216.38 65.72"/>
    </g>
    <g>
      <path class="cls-4" d="M554.13,271.51v-37.64h78.56c3.5,0,6.65-.89,9.46-2.69,2.8-1.79,5.03-4.12,6.7-6.99,1.66-2.86,2.5-6,2.5-9.41,0-3.58-.83-6.81-2.5-9.68-1.67-2.87-3.9-5.2-6.7-6.99-2.8-1.79-5.96-2.69-9.46-2.69h-28.38c-10.69,0-20.41-2.15-29.17-6.45-8.76-4.3-15.72-10.62-20.89-18.95-5.17-8.33-7.75-18.32-7.75-29.97s2.45-21.41,7.36-29.84c4.9-8.42,11.56-15.01,19.97-19.76,8.41-4.75,17.69-7.12,27.85-7.12h81.19v37.64h-76.2c-3.15,0-6.04.81-8.67,2.42-2.63,1.61-4.64,3.76-6.04,6.45-1.4,2.69-2.1,5.65-2.1,8.87s.7,6.14,2.1,8.74c1.4,2.6,3.41,4.7,6.04,6.32,2.63,1.61,5.52,2.42,8.67,2.42h29.69c11.73,0,21.94,2.28,30.61,6.86,8.67,4.57,15.41,10.93,20.23,19.09,4.82,8.16,7.23,17.7,7.23,28.63,0,12.9-2.5,23.88-7.49,32.93-4.99,9.05-11.69,15.95-20.1,20.7-8.41,4.75-17.69,7.12-27.85,7.12h-84.87Z"/>
      <path class="cls-4" d="M764.33,274.74c-11.92,0-22.43-3.14-31.53-9.41-9.11-6.27-16.2-14.74-21.28-25.4-5.08-10.66-7.62-22.72-7.62-36.16s2.98-26.48,8.93-37.5c5.95-11.02,14.41-19.76,25.36-26.21,10.95-6.45,23.87-9.68,38.76-9.68s27.89,3.18,38.49,9.54c10.6,6.36,18.74,15.06,24.44,26.08,5.69,11.02,8.54,23.35,8.54,36.96v68.55h-39.94v-22.04h-1.05c-2.45,4.84-5.61,9.19-9.46,13.04-3.85,3.86-8.54,6.86-14.06,9.01-5.52,2.15-12.05,3.23-19.57,3.23ZM776.42,238.71c6.13,0,11.52-1.57,16.16-4.71,4.64-3.13,8.19-7.48,10.64-13.04,2.45-5.55,3.68-11.74,3.68-18.55s-1.23-12.63-3.68-18.01c-2.45-5.38-6-9.63-10.64-12.77-4.64-3.13-10.03-4.7-16.16-4.7s-11.82,1.57-16.55,4.7c-4.73,3.14-8.32,7.39-10.77,12.77-2.46,5.38-3.68,11.38-3.68,18.01s1.22,13,3.68,18.55c2.45,5.56,6.04,9.91,10.77,13.04,4.73,3.14,10.25,4.71,16.55,4.71Z"/>
      <path class="cls-4" d="M870.75,271.51V75.26h40.73v196.25h-40.73Z"/>
      <path class="cls-4" d="M1004.22,271.51c-15.24,0-28.64-2.91-40.2-8.74-11.56-5.82-20.54-13.89-26.93-24.19-6.4-10.3-9.59-22.27-9.59-35.89,0-15.05,3.06-27.96,9.2-38.71,6.13-10.75,14.32-19.04,24.57-24.87,10.25-5.82,21.59-8.74,34.03-8.74,14.19,0,26.05,3.05,35.6,9.14,9.55,6.1,16.77,14.38,21.68,24.87,4.9,10.48,7.36,22.45,7.36,35.89,0,2.33-.13,5.07-.39,8.2-.26,3.14-.57,5.6-.92,7.39h-88.28c1.05,4.66,3.06,8.6,6.04,11.83,2.98,3.23,6.74,5.6,11.3,7.12,4.55,1.52,9.63,2.29,15.24,2.29h41.25v34.41h-39.94ZM969.28,189.79h51.24c-.35-2.87-.88-5.64-1.58-8.33-.7-2.69-1.8-5.06-3.29-7.12-1.49-2.06-3.2-3.85-5.12-5.38-1.93-1.52-4.16-2.73-6.7-3.63-2.54-.9-5.39-1.34-8.54-1.34-4.03,0-7.62.72-10.77,2.15-3.15,1.44-5.78,3.36-7.88,5.78-2.1,2.42-3.72,5.2-4.86,8.33-1.14,3.14-1.97,6.32-2.5,9.54Z"/>
      <path class="cls-4" d="M1075.95,271.51v-33.07h64.9c1.75,0,3.32-.4,4.73-1.21,1.4-.81,2.54-1.92,3.41-3.36.87-1.43,1.31-2.96,1.31-4.57,0-1.79-.44-3.4-1.31-4.84-.88-1.43-2.02-2.55-3.41-3.36-1.41-.81-2.98-1.21-4.73-1.21h-23.65c-8.76,0-16.69-1.48-23.78-4.44-7.09-2.96-12.7-7.62-16.82-13.98-4.12-6.36-6.18-14.65-6.18-24.87,0-7.88,1.88-15.06,5.65-21.51,3.76-6.45,8.93-11.65,15.5-15.59,6.57-3.94,13.79-5.91,21.68-5.91h64.9v33.33h-58.59c-2.46,0-4.51.81-6.18,2.42-1.67,1.61-2.5,3.59-2.5,5.91,0,2.51.83,4.62,2.5,6.32,1.66,1.71,3.72,2.55,6.18,2.55h23.12c9.81,0,18.26,1.48,25.36,4.44,7.1,2.96,12.61,7.66,16.55,14.11,3.94,6.45,5.91,14.79,5.91,25,0,8.07-1.97,15.42-5.91,22.04-3.94,6.63-9.2,11.92-15.77,15.86-6.57,3.95-13.97,5.91-22.2,5.91h-70.68Z"/>
      <path class="cls-4" d="M1262.51,271.51c-11.39,0-21.37-2.6-29.95-7.8-8.58-5.2-15.24-12.1-19.97-20.7-4.73-8.6-7.09-18.1-7.09-28.5V83.33h44.14v134.42c0,4.3,1.49,8.07,4.47,11.29,2.98,3.23,6.66,4.84,11.04,4.84h48.61v37.64h-51.24Z"/>
      <path class="cls-4" d="M1374.96,274.74c-11.92,0-22.43-3.14-31.53-9.41-9.11-6.27-16.2-14.74-21.28-25.4-5.08-10.66-7.62-22.72-7.62-36.16s2.98-26.48,8.93-37.5c5.95-11.02,14.41-19.76,25.36-26.21,10.95-6.45,23.87-9.68,38.76-9.68s27.89,3.18,38.49,9.54c10.6,6.36,18.74,15.06,24.44,26.08,5.69,11.02,8.54,23.35,8.54,36.96v68.55h-39.94v-22.04h-1.05c-2.45,4.84-5.61,9.19-9.46,13.04-3.85,3.86-8.54,6.86-14.06,9.01-5.52,2.15-12.05,3.23-19.57,3.23ZM1387.05,238.71c6.13,0,11.52-1.57,16.16-4.71,4.64-3.13,8.19-7.48,10.64-13.04,2.45-5.55,3.68-11.74,3.68-18.55s-1.23-12.63-3.68-18.01c-2.45-5.38-6-9.63-10.64-12.77-4.64-3.13-10.03-4.7-16.16-4.7s-11.82,1.57-16.55,4.7c-4.73,3.14-8.32,7.39-10.77,12.77-2.46,5.38-3.68,11.38-3.68,18.01s1.22,13,3.68,18.55c2.45,5.56,6.04,9.91,10.77,13.04,4.73,3.14,10.25,4.71,16.55,4.71Z"/>
      <path class="cls-4" d="M1547.33,274.74c-14.54,0-27.24-3.05-38.1-9.14-10.86-6.09-19.27-14.79-25.22-26.08-5.96-11.29-8.93-24.46-8.93-39.52v-124.74h40.73v73.39h.79c2.63-3.76,5.91-7.03,9.85-9.81,3.94-2.78,8.32-4.88,13.14-6.32,4.82-1.43,9.94-2.15,15.37-2.15,12.79,0,24,2.96,33.63,8.87,9.63,5.91,17.21,14.07,22.73,24.46,5.52,10.4,8.28,22.58,8.28,36.56,0,10.75-1.67,20.7-4.99,29.84-3.33,9.14-8.1,17.07-14.32,23.79-6.22,6.72-13.75,11.87-22.6,15.46-8.85,3.58-18.96,5.38-30.35,5.38ZM1547.33,238.71c6.31,0,11.73-1.57,16.29-4.71,4.55-3.13,8.1-7.43,10.64-12.9,2.54-5.47,3.81-11.6,3.81-18.42s-1.27-12.9-3.81-18.28c-2.54-5.38-6.09-9.63-10.64-12.77-4.56-3.13-9.98-4.7-16.29-4.7s-11.78,1.57-16.42,4.7c-4.64,3.14-8.19,7.39-10.64,12.77-2.46,5.38-3.68,11.47-3.68,18.28s1.22,12.95,3.68,18.42c2.45,5.47,6,9.77,10.64,12.9,4.64,3.14,10.12,4.71,16.42,4.71Z"/>
    </g>
  </g>
</svg>