<?xml version="1.0" encoding="UTF-8"?>
<svg id="Layer_1" data-name="Layer 1" xmlns="http://www.w3.org/2000/svg" viewBox="0 0 1000 600">
  <defs>
    <style>
      .cls-1 {
        fill: none;
      }

      .cls-2 {
        fill: #2bb0fb;
      }

      .cls-3 {
        fill: #0057fa;
      }

      .cls-4 {
        fill: #1533b6;
      }
    </style>
  </defs>
  <rect class="cls-1" y="0" width="1000" height="600"/>
  <g>
    <path class="cls-3" d="M685.32,265.46l-87.87-164.64c-8.95-16.77-26.4-27.24-45.41-27.24h-104.51c-19,0-36.46,10.47-45.41,27.24l-87.87,164.64c-6.45,12.08,2.31,26.67,16,26.67h93.75c6.7,0,12.85-3.69,16-9.6l59.79-112.03,59.79,112.03c3.15,5.91,9.3,9.6,16,9.6h93.75c13.69,0,22.44-14.59,16-26.67Z"/>
    <g>
      <path class="cls-2" d="M447.53,73.58c-19,0-36.46,10.47-45.41,27.24l-87.87,164.64c-6.45,12.08,2.31,26.67,16,26.67h93.75c6.7,0,12.85-3.69,16-9.6l59.79-112.03-51.73-96.93h-.53Z"/>
      <path class="cls-4" d="M685.32,265.46l-87.87-164.64c-8.95-16.77-26.4-27.24-45.41-27.24h-.53l-51.73,96.93,59.79,112.03c3.15,5.91,9.3,9.6,16,9.6h93.75c13.69,0,22.44-14.59,16-26.67Z"/>
      <polygon class="cls-3" points="448.06 73.58 499.79 170.51 551.52 73.58 448.06 73.58"/>
    </g>
    <g>
      <path class="cls-4" d="M77.25,523.84v-30.08h62.79c2.8,0,5.32-.71,7.56-2.15,2.24-1.43,4.02-3.29,5.36-5.59,1.33-2.29,2-4.8,2-7.52,0-2.86-.67-5.44-2-7.74-1.33-2.29-3.12-4.15-5.36-5.59-2.24-1.43-4.76-2.15-7.56-2.15h-22.68c-8.54,0-16.31-1.72-23.31-5.16-7-3.44-12.57-8.49-16.7-15.15-4.13-6.66-6.2-14.64-6.2-23.96s1.96-17.12,5.88-23.85c3.92-6.73,9.24-12,15.96-15.79,6.72-3.79,14.14-5.69,22.26-5.69h64.89v30.08h-60.9c-2.52,0-4.83.65-6.93,1.93-2.1,1.29-3.71,3.01-4.83,5.16-1.12,2.15-1.68,4.51-1.68,7.09s.56,4.91,1.68,6.98c1.12,2.08,2.73,3.76,4.83,5.05,2.1,1.29,4.41,1.93,6.93,1.93h23.73c9.38,0,17.54,1.83,24.47,5.48,6.93,3.65,12.32,8.74,16.17,15.25,3.85,6.52,5.78,14.15,5.78,22.88,0,10.31-2,19.09-5.99,26.32-3.99,7.24-9.35,12.75-16.07,16.54-6.72,3.8-14.14,5.69-22.26,5.69h-67.83Z"/>
      <path class="cls-4" d="M245.26,526.42c-9.52,0-17.92-2.51-25.2-7.52-7.28-5.01-12.95-11.78-17.01-20.3-4.06-8.52-6.09-18.16-6.09-28.9s2.38-21.16,7.14-29.97c4.76-8.81,11.51-15.79,20.27-20.95,8.75-5.16,19.08-7.74,30.98-7.74s22.29,2.54,30.77,7.63c8.47,5.09,14.98,12.03,19.53,20.84,4.55,8.81,6.83,18.66,6.83,29.54v54.79h-31.92v-17.62h-.84c-1.96,3.87-4.48,7.34-7.56,10.42-3.08,3.08-6.83,5.48-11.24,7.2s-9.63,2.58-15.65,2.58ZM254.92,497.62c4.9,0,9.2-1.25,12.92-3.76,3.71-2.5,6.54-5.98,8.5-10.42,1.96-4.44,2.94-9.38,2.94-14.83s-.98-10.1-2.94-14.4c-1.96-4.3-4.8-7.7-8.5-10.21-3.71-2.5-8.02-3.76-12.92-3.76s-9.45,1.26-13.23,3.76c-3.78,2.51-6.65,5.91-8.61,10.21-1.96,4.3-2.94,9.1-2.94,14.4s.98,10.39,2.94,14.83c1.96,4.44,4.83,7.92,8.61,10.42,3.78,2.51,8.19,3.76,13.23,3.76Z"/>
      <path class="cls-4" d="M330.31,523.84v-156.85h32.55v156.85h-32.55Z"/>
      <path class="cls-4" d="M437,523.84c-12.18,0-22.89-2.33-32.13-6.98-9.24-4.65-16.42-11.1-21.53-19.34-5.11-8.24-7.67-17.8-7.67-28.69,0-12.03,2.45-22.35,7.35-30.94,4.9-8.59,11.45-15.22,19.64-19.88,8.19-4.65,17.25-6.98,27.2-6.98,11.34,0,20.82,2.44,28.46,7.31,7.63,4.87,13.41,11.5,17.33,19.88,3.92,8.38,5.88,17.94,5.88,28.68,0,1.86-.11,4.05-.32,6.55-.21,2.51-.46,4.48-.74,5.91h-70.56c.84,3.73,2.45,6.88,4.83,9.45,2.38,2.58,5.39,4.48,9.03,5.69,3.64,1.22,7.7,1.83,12.18,1.83h32.97v27.5h-31.92ZM409.07,458.52h40.95c-.28-2.29-.7-4.51-1.26-6.66-.56-2.15-1.44-4.04-2.63-5.69-1.19-1.65-2.56-3.08-4.09-4.3-1.54-1.21-3.33-2.18-5.36-2.9-2.03-.72-4.3-1.07-6.83-1.07-3.22,0-6.09.57-8.61,1.72-2.52,1.15-4.62,2.69-6.3,4.62-1.68,1.93-2.98,4.16-3.88,6.66-.91,2.51-1.58,5.05-2,7.63Z"/>
      <path class="cls-4" d="M494.33,523.84v-26.43h51.87c1.4,0,2.66-.32,3.78-.97,1.12-.64,2.03-1.54,2.73-2.69.7-1.14,1.05-2.36,1.05-3.65,0-1.43-.35-2.72-1.05-3.87-.7-1.14-1.61-2.04-2.73-2.69-1.12-.64-2.38-.97-3.78-.97h-18.9c-7,0-13.34-1.18-19.01-3.54-5.67-2.36-10.15-6.09-13.44-11.17-3.29-5.08-4.94-11.71-4.94-19.88,0-6.3,1.5-12.03,4.52-17.19,3.01-5.16,7.14-9.31,12.39-12.46,5.25-3.15,11.03-4.73,17.33-4.73h51.87v26.64h-46.83c-1.96,0-3.61.64-4.94,1.93-1.33,1.29-2,2.87-2,4.73,0,2.01.66,3.69,2,5.05,1.33,1.36,2.97,2.04,4.94,2.04h18.48c7.84,0,14.6,1.18,20.27,3.54,5.67,2.36,10.08,6.12,13.23,11.28,3.15,5.16,4.72,11.82,4.72,19.98,0,6.45-1.58,12.32-4.72,17.62-3.15,5.3-7.35,9.53-12.6,12.68-5.25,3.15-11.17,4.73-17.75,4.73h-56.49Z"/>
      <path class="cls-4" d="M643.44,523.84c-9.1,0-17.08-2.08-23.94-6.23-6.86-4.15-12.18-9.67-15.96-16.54s-5.67-14.47-5.67-22.78v-104.86h35.28v107.43c0,3.44,1.19,6.45,3.57,9.02,2.38,2.58,5.32,3.87,8.82,3.87h38.85v30.08h-40.95Z"/>
      <path class="cls-4" d="M733.32,526.42c-9.52,0-17.92-2.51-25.2-7.52-7.28-5.01-12.95-11.78-17.01-20.3-4.06-8.52-6.09-18.16-6.09-28.9s2.38-21.16,7.14-29.97c4.76-8.81,11.51-15.79,20.27-20.95,8.75-5.16,19.08-7.74,30.98-7.74s22.29,2.54,30.77,7.63c8.47,5.09,14.98,12.03,19.53,20.84,4.55,8.81,6.83,18.66,6.83,29.54v54.79h-31.92v-17.62h-.84c-1.96,3.87-4.48,7.34-7.56,10.42-3.08,3.08-6.83,5.48-11.24,7.2s-9.63,2.58-15.65,2.58ZM742.98,497.62c4.9,0,9.2-1.25,12.92-3.76,3.71-2.5,6.54-5.98,8.5-10.42,1.96-4.44,2.94-9.38,2.94-14.83s-.98-10.1-2.94-14.4c-1.96-4.3-4.8-7.7-8.5-10.21-3.71-2.5-8.02-3.76-12.92-3.76s-9.45,1.26-13.23,3.76c-3.78,2.51-6.65,5.91-8.61,10.21-1.96,4.3-2.94,9.1-2.94,14.4s.98,10.39,2.94,14.83c1.96,4.44,4.83,7.92,8.61,10.42,3.78,2.51,8.19,3.76,13.23,3.76Z"/>
      <path class="cls-4" d="M871.08,526.42c-11.62,0-21.77-2.44-30.45-7.31-8.68-4.87-15.4-11.82-20.16-20.84-4.76-9.02-7.14-19.55-7.14-31.59v-99.7h32.55v58.66h.63c2.1-3.01,4.73-5.62,7.88-7.84,3.15-2.22,6.65-3.9,10.5-5.05,3.85-1.15,7.94-1.72,12.29-1.72,10.22,0,19.18,2.36,26.88,7.09,7.7,4.73,13.76,11.25,18.17,19.55,4.41,8.31,6.62,18.05,6.62,29.22,0,8.59-1.33,16.54-3.99,23.85-2.66,7.31-6.48,13.64-11.45,19.02-4.97,5.37-10.99,9.49-18.06,12.36-7.07,2.86-15.16,4.3-24.26,4.3ZM871.08,497.62c5.04,0,9.38-1.25,13.02-3.76,3.64-2.5,6.47-5.94,8.51-10.31,2.03-4.37,3.04-9.27,3.04-14.72s-1.02-10.31-3.04-14.61c-2.03-4.3-4.87-7.7-8.51-10.21-3.64-2.5-7.98-3.76-13.02-3.76s-9.42,1.26-13.13,3.76c-3.71,2.51-6.55,5.91-8.5,10.21-1.96,4.3-2.94,9.17-2.94,14.61s.98,10.35,2.94,14.72c1.96,4.37,4.79,7.81,8.5,10.31,3.71,2.51,8.09,3.76,13.13,3.76Z"/>
    </g>
  </g>
</svg>