<?xml version="1.0" encoding="UTF-8"?>
<svg id="Layer_1" data-name="Layer 1" xmlns="http://www.w3.org/2000/svg" viewBox="0 0 1000 600">
  <defs>
    <style>
      .cls-1 {
        fill: none;
      }

      .cls-2 {
        fill: #2bb0fb;
      }

      .cls-3 {
        fill: #0057fa;
      }

      .cls-4 {
        fill: #1533b6;
      }
    </style>
  </defs>
  <rect class="cls-1" y="0" width="1000" height="600"/>
  <g>
    <path class="cls-3" d="M689.29,254.03l-87.87-164.64c-8.95-16.77-26.4-27.24-45.41-27.24h-104.51c-19,0-36.46,10.47-45.41,27.24l-87.87,164.64c-6.45,12.08,2.31,26.67,16,26.67h93.75c6.69,0,12.85-3.69,16-9.6l59.79-112.03,59.79,112.03c3.15,5.91,9.3,9.6,16,9.6h93.75c13.69,0,22.44-14.59,16-26.67Z"/>
    <g>
      <path class="cls-2" d="M451.5,62.15c-19,0-36.46,10.47-45.41,27.24l-87.87,164.64c-6.45,12.08,2.31,26.67,16,26.67h93.75c6.7,0,12.85-3.69,16-9.6l59.79-112.03-51.73-96.93h-.53Z"/>
      <path class="cls-4" d="M689.29,254.03l-87.87-164.64c-8.95-16.77-26.4-27.24-45.41-27.24h-.53l-51.73,96.93,59.79,112.03c3.15,5.91,9.3,9.6,16,9.6h93.75c13.69,0,22.44-14.59,16-26.67Z"/>
      <polygon class="cls-3" points="452.03 62.15 503.76 159.07 555.48 62.15 452.03 62.15"/>
    </g>
    <g>
      <rect class="cls-4" x="313.88" y="375.27" width="26.67" height="162.58"/>
      <path class="cls-4" d="M280.24,432.2h-11.12v-56.04h-28.16c-21.45,0-27.27,10.99-30.06,29.98l-17.34,119.54-.07.48h26.85l15.83-111.39c1.33-9.87,2.22-14,4.26-14h1.83v125.39h26.84v-67.57h11.12v79.28h26.5v-162.58h-26.5v56.93Z"/>
      <path class="cls-4" d="M449.58,413.29v-1.06c0-24.11-18.03-39.08-47.05-39.08s-47.05,14.98-47.05,39.08v1.06c0,24.11,18.03,39.08,47.05,39.08s47.05-14.98,47.05-39.08ZM402.52,428.83c-10.75,0-17.44-6.16-17.44-16.07s6.68-16.07,17.44-16.07,17.44,6.16,17.44,16.07-6.68,16.07-17.44,16.07Z"/>
      <rect class="cls-4" x="461.91" y="375.27" width="29.62" height="77.1"/>
      <path class="cls-4" d="M396.01,507.35h82.1c10.66,0,13.42-2.82,13.42-13.72v-36.24h-125.48v22.12h95.87v7.5h-95.52v50.85h126.87v-22.48h-97.25v-8.03Z"/>
      <path class="cls-4" d="M543.24,477.2l22.46-70.17c1.26-3.86,2.9-6.1,7.57-6.1h16.12c4.77,0,6.3,1.97,7.75,6.09l22.46,70.17h31.74l-25.31-76.26h20.29v-23.89h-129.81v23.89h20.29l-25.31,76.26h31.74Z"/>
      <rect class="cls-4" x="507.32" y="503.32" width="148.19" height="23.89"/>
      <polygon class="cls-4" points="779.83 375.27 779.83 402.94 769.75 402.94 769.75 375.27 743.25 375.27 743.25 462.66 769.75 462.66 769.75 429.31 779.83 429.31 779.83 462.66 806.5 462.66 806.5 375.27 779.83 375.27"/>
      <path class="cls-4" d="M666.46,407.55v53.16h71.22v-22.12h-44.38v-9.27h26.45c10.66,0,13.42-2.82,13.42-13.72v-39.44h-67.06v22.12h40.22v9.27h-39.87Z"/>
      <path class="cls-4" d="M776.88,477.96h-67.64v-9.75h-29.62v69.65h109.63c12.4,0,17.23-4.94,17.23-17.62v-52.03h-29.62v9.75ZM709.25,513.96v-12.46h67.64v12.46h-67.64Z"/>
    </g>
  </g>
</svg>