<?xml version="1.0" encoding="UTF-8"?>
<svg id="Layer_1" data-name="Layer 1" xmlns="http://www.w3.org/2000/svg" viewBox="0 0 890 690">
  <defs>
    <style>
      .cls-1 {
        fill: none;
      }

      .cls-2 {
        fill: #2bb0fb;
      }

      .cls-3 {
        fill: #0057fa;
      }

      .cls-4 {
        fill: #1533b6;
      }
    </style>
  </defs>
  <path class="cls-3" d="M809.17,507.14l-172.47-323.17c-17.56-32.91-51.83-53.46-89.13-53.46h-205.14c-37.3,0-71.57,20.55-89.13,53.46L80.83,507.14c-12.65,23.71,4.53,52.35,31.4,52.35h184.01c13.14,0,25.21-7.24,31.4-18.83l117.35-219.89,117.35,219.89c6.19,11.59,18.26,18.83,31.4,18.83h184.01c26.87,0,44.05-28.64,31.4-52.35Z"/>
  <rect class="cls-1" y="0" width="890" height="690"/>
  <g>
    <path class="cls-2" d="M342.43,130.51c-37.3,0-71.57,20.55-89.13,53.46L80.83,507.14c-12.65,23.71,4.53,52.35,31.4,52.35h184.01c13.14,0,25.21-7.24,31.4-18.83l117.35-219.89-101.53-190.25h-1.04Z"/>
    <path class="cls-4" d="M809.17,507.14l-172.47-323.17c-17.56-32.91-51.83-53.46-89.13-53.46h-1.04l-101.53,190.25,117.35,219.89c6.19,11.59,18.26,18.83,31.4,18.83h184.01c26.87,0,44.05-28.64,31.4-52.35Z"/>
    <polygon class="cls-3" points="343.47 130.51 445 320.76 546.53 130.51 343.47 130.51"/>
  </g>
</svg>